<svg xmlns="http://www.w3.org/2000/svg" width="119.925" height="67.34" viewBox="0 0 119.925 67.34">
  <path id="Path_3" data-name="Path 3" d="M3.315,12.22c.65,0,1.3-.39,1.3-.975,0,0,8.125-33.475,10.92-33.475.325,0,.585.455.715,1.43,1.17,7.475,2.275,11.7,3.25,12.545a2.391,2.391,0,0,0,1.365.52,2.565,2.565,0,0,0,1.95-1.04c1.43-1.625,5.85-9.945,8-11.96.195-.2.325-.325.455-.325.325,0,.52.845,1.365,4.225,1.105,4.225,5.525,21,9.425,21a.966.966,0,0,0,.585-.13,1.284,1.284,0,0,0,.845-.975c0-.195-.13-.325-.39-.325a1.269,1.269,0,0,0-.455.065l-.325.065a.924.924,0,0,1-.39-.13C39.26,0,34.515-19.305,34.255-20.02c-.585-1.625-1.56-2.535-2.665-2.535a2.476,2.476,0,0,0-1.235.39c-.91.585-3.7,4.29-6.3,8.385-2.015,3.185-2.535,3.9-2.73,3.9-.065,0-.065-.13-.065-.26a79.987,79.987,0,0,1-.78-8.515C19.695-29.77,19.11-31.33,15.86-31.33a3.7,3.7,0,0,0-3.055,1.885c-3.25,5.915-8.58,27.1-8.58,27.1s-.2-33.54-.26-33.605a1.958,1.958,0,0,0-1.5-.585,1.994,1.994,0,0,0-1.755.91C.2-34.515,0-31.005,0-26.39,0-12.74,1.755,10.66,2.535,11.9A1.076,1.076,0,0,0,3.315,12.22ZM37.18,6.305c2.08,0,7.735-10.27,8.97-12.35A43.484,43.484,0,0,0,50.375-.91c2.08,1.95,3.965,2.73,5.655,2.73,3.965,0,7.15-4.16,10.92-8.385,3.315-3.64,4.29-4.745,4.29-5.135,0-.13-.13-.195-.26-.26h-.195c-.455,0-.975.39-1.95,1.495C62.92-4.03,59.54.39,56.355.39c-2.34,0-4.55-2.405-7.54-8.06a4.978,4.978,0,0,1-.65-1.56l.065-.2c0-.065,5.525-9.49,5.85-9.49a.746.746,0,0,0,.455-.585.47.47,0,0,0-.26-.39,1.306,1.306,0,0,0-.845-.26,3.774,3.774,0,0,0-2.665,1.495c-1.56,1.755-3.7,5.72-4.225,5.72-.065,0-.13,0-.13-.065-1.1-2.665-1.3-3.64-2.535-3.835L43.42-16.9c-.65,0-1.43.26-1.56.585l-.065.26c0,1.3,2.34,6.5,2.47,6.825a21.2,21.2,0,0,1-2.08,3.9C41.08-3.445,36.53,3.315,36.53,5.59,36.53,6.045,36.725,6.305,37.18,6.305ZM78.325.13c7.6,0,17.615-11.115,17.615-12.09v-.065c-.065-.065-.13-.13-.195-.13-1.1,0-4.615,5.72-10.14,9.1a12.851,12.851,0,0,1-6.24,2.21c-6.37,0-5.4-10.465-5.915-12.805,0,0,6.63-6.435,12.87-19.955,1.625-3.64,4.225-10.14,4.225-15.145,0-2.21-.52-4.16-1.885-5.33a4.154,4.154,0,0,0-2.795-1.04C79.755-55.12,70.98-43.1,68.9-22.3A33.486,33.486,0,0,0,68.7-18.46c0,6.955,1.625,16.38,7.54,18.265A7.325,7.325,0,0,0,78.325.13ZM73.45-15.8c.13-1.105.78-20.41,7.67-32.24C83-51.35,84.825-53.17,86.125-53.17c1.235,0,2.08,1.5,2.21,4.875v.585C88.335-34.19,73.71-16.25,73.45-15.8ZM102.375-4.42a23.05,23.05,0,0,0,7.345-1.365c1.95-.715,10.2-5.005,10.2-5.59a.393.393,0,0,0-.39-.195c-1.755,0-8.97,5.85-15.6,5.85h-.455c-2.925-.13-3.185-2.145-3.185-3.705V-10.6l.715.26a5.017,5.017,0,0,0,.975.13,7.706,7.706,0,0,0,6.11-3.51,3.607,3.607,0,0,0,.52-1.885c0-2.145-2.21-3.445-4.94-3.445A9.116,9.116,0,0,0,96.98-15.99a8.753,8.753,0,0,0-2.47,5.655C94.51-7.085,97.175-4.42,102.375-4.42Zm-.455-6.695a3.8,3.8,0,0,1-1.43-.325l.455-1.235c1.17-3.25,2.535-4.42,3.575-4.42.91,0,1.625.975,1.625,2.145a3.9,3.9,0,0,1-2.6,3.445A3.445,3.445,0,0,1,101.92-11.115Z" transform="translate(0 55.12)" fill="#f24343"/>
</svg>
